solid OpenSCAD_Model
  facet normal -1 0 0
    outer loop
      vertex -57.65 13.7 14
      vertex -57.65 26.7 21
      vertex -57.65 30.7 14
    endloop
  endfacet
  facet normal -1 0 0
    outer loop
      vertex -57.65 12.2 20
      vertex -57.65 13.7 14
      vertex -57.65 12.2 6
    endloop
  endfacet
  facet normal -1 0 0
    outer loop
      vertex -57.65 12.2 20
      vertex -57.65 26.7 21
      vertex -57.65 13.7 14
    endloop
  endfacet
  facet normal -1 0 0
    outer loop
      vertex -57.65 -4.8 20
      vertex -57.65 26.7 21
      vertex -57.65 12.2 20
    endloop
  endfacet
  facet normal -1 0 0
    outer loop
      vertex -57.65 -4.8 6
      vertex -57.65 -5.8 20
      vertex -57.65 -4.8 20
    endloop
  endfacet
  facet normal -1 0 0
    outer loop
      vertex -57.65 -29.3 21
      vertex -57.65 -4.8 20
      vertex -57.65 -5.8 20
    endloop
  endfacet
  facet normal -1 0 0
    outer loop
      vertex -57.65 -29.3 21
      vertex -57.65 -5.8 20
      vertex -57.65 -22.8 20
    endloop
  endfacet
  facet normal -1 0 0
    outer loop
      vertex -57.65 -22.8 4
      vertex -57.65 -26.8 14
      vertex -57.65 -22.8 20
    endloop
  endfacet
  facet normal -1 0 0
    outer loop
      vertex -57.65 -4.8 20
      vertex -57.65 -29.3 21
      vertex -57.65 26.7 21
    endloop
  endfacet
  facet normal -1 0 0
    outer loop
      vertex -57.65 -26.8 14
      vertex -57.65 -29.3 21
      vertex -57.65 -22.8 20
    endloop
  endfacet
  facet normal -1 -0 0
    outer loop
      vertex -57.65 -29.3 21
      vertex -57.65 -43.8 14
      vertex -57.65 -29.3 27
    endloop
  endfacet
  facet normal -1 0 0
    outer loop
      vertex -57.65 -43.8 14
      vertex -57.65 -29.3 21
      vertex -57.65 -26.8 14
    endloop
  endfacet
  facet normal -1 0 0
    outer loop
      vertex -57.65 44.2 14
      vertex -57.65 56.8 1.5
      vertex -57.65 44.2 4
    endloop
  endfacet
  facet normal -1 0 0
    outer loop
      vertex -57.65 56.8 1.5
      vertex -57.65 33.2 4
      vertex -57.65 44.2 4
    endloop
  endfacet
  facet normal -1 0 0
    outer loop
      vertex -57.65 33.2 4
      vertex -57.65 30.7 6
      vertex -57.65 33.2 14
    endloop
  endfacet
  facet normal -1 0 0
    outer loop
      vertex -57.65 33.2 4
      vertex -57.65 13.7 6
      vertex -57.65 30.7 6
    endloop
  endfacet
  facet normal -1 0 0
    outer loop
      vertex -57.65 -5.8 4
      vertex -57.65 33.2 4
      vertex -57.65 56.8 1.5
    endloop
  endfacet
  facet normal -1 0 0
    outer loop
      vertex -57.65 13.7 6
      vertex -57.65 12.2 6
      vertex -57.65 13.7 14
    endloop
  endfacet
  facet normal -1 0 0
    outer loop
      vertex -57.65 33.2 4
      vertex -57.65 -5.8 4
      vertex -57.65 13.7 6
    endloop
  endfacet
  facet normal -1 -0 0
    outer loop
      vertex -57.65 13.7 6
      vertex -57.65 -5.8 4
      vertex -57.65 12.2 6
    endloop
  endfacet
  facet normal -1 0 0
    outer loop
      vertex -57.65 -5.8 20
      vertex -57.65 -4.8 6
      vertex -57.65 -5.8 4
    endloop
  endfacet
  facet normal -1 -0 0
    outer loop
      vertex -57.65 12.2 6
      vertex -57.65 -5.8 4
      vertex -57.65 -4.8 6
    endloop
  endfacet
  facet normal -1 0 0
    outer loop
      vertex -57.65 -56.8 1.5
      vertex -57.65 -5.8 4
      vertex -57.65 56.8 1.5
    endloop
  endfacet
  facet normal -1 0 0
    outer loop
      vertex -57.65 -26.8 14
      vertex -57.65 -22.8 4
      vertex -57.65 -26.8 6
    endloop
  endfacet
  facet normal -1 0 0
    outer loop
      vertex -57.65 -22.8 4
      vertex -57.65 -43.8 6
      vertex -57.65 -26.8 6
    endloop
  endfacet
  facet normal -1 -0 0
    outer loop
      vertex -57.65 -43.8 6
      vertex -57.65 -56.8 1.5
      vertex -57.65 -43.8 14
    endloop
  endfacet
  facet normal -1 -0 0
    outer loop
      vertex -57.65 -22.8 4
      vertex -57.65 -56.8 1.5
      vertex -57.65 -43.8 6
    endloop
  endfacet
  facet normal -1 -0 0
    outer loop
      vertex -57.65 -5.8 4
      vertex -57.65 -56.8 1.5
      vertex -57.65 -22.8 4
    endloop
  endfacet
  facet normal -1 0 0
    outer loop
      vertex -57.65 56.8 1.5
      vertex -57.65 44.2 14
      vertex -57.65 56.8 31.5
    endloop
  endfacet
  facet normal -1 0 0
    outer loop
      vertex -57.65 26.7 27
      vertex -57.65 44.2 14
      vertex -57.65 33.2 14
    endloop
  endfacet
  facet normal -1 0 0
    outer loop
      vertex -57.65 30.7 14
      vertex -57.65 33.2 14
      vertex -57.65 30.7 6
    endloop
  endfacet
  facet normal -1 0 0
    outer loop
      vertex -57.65 26.7 21
      vertex -57.65 33.2 14
      vertex -57.65 30.7 14
    endloop
  endfacet
  facet normal -1 0 0
    outer loop
      vertex -57.65 33.2 14
      vertex -57.65 26.7 21
      vertex -57.65 26.7 27
    endloop
  endfacet
  facet normal -1 0 0
    outer loop
      vertex -57.65 44.2 14
      vertex -57.65 26.7 27
      vertex -57.65 56.8 31.5
    endloop
  endfacet
  facet normal -1 0 0
    outer loop
      vertex -57.65 -56.8 31.5
      vertex -57.65 26.7 27
      vertex -57.65 -29.3 27
    endloop
  endfacet
  facet normal -1 0 0
    outer loop
      vertex -57.65 26.7 27
      vertex -57.65 -56.8 31.5
      vertex -57.65 56.8 31.5
    endloop
  endfacet
  facet normal -1 0 0
    outer loop
      vertex -57.65 -43.8 14
      vertex -57.65 -56.8 31.5
      vertex -57.65 -29.3 27
    endloop
  endfacet
  facet normal -1 0 0
    outer loop
      vertex -57.65 -56.8 31.5
      vertex -57.65 -43.8 14
      vertex -57.65 -56.8 1.5
    endloop
  endfacet
  facet normal -0 0 1
    outer loop
      vertex -57.65 56.8 31.5
      vertex -55.15 -56.8 31.5
      vertex -55.15 56.8 31.5
    endloop
  endfacet
  facet normal 0 0 1
    outer loop
      vertex -55.15 -56.8 31.5
      vertex -57.65 56.8 31.5
      vertex -57.65 -56.8 31.5
    endloop
  endfacet
  facet normal 1 0 0
    outer loop
      vertex -55.15 56.8 31.5
      vertex -55.15 44.2 14
      vertex -55.15 56.8 1.5
    endloop
  endfacet
  facet normal 1 -0 0
    outer loop
      vertex -55.15 26.7 27
      vertex -55.15 44.2 14
      vertex -55.15 56.8 31.5
    endloop
  endfacet
  facet normal 1 0 0
    outer loop
      vertex -55.15 30.7 6
      vertex -55.15 33.2 14
      vertex -55.15 30.7 14
    endloop
  endfacet
  facet normal 1 0 0
    outer loop
      vertex -55.15 44.2 14
      vertex -55.15 26.7 27
      vertex -55.15 33.2 14
    endloop
  endfacet
  facet normal 1 -0 0
    outer loop
      vertex -55.15 26.7 21
      vertex -55.15 33.2 14
      vertex -55.15 26.7 27
    endloop
  endfacet
  facet normal 1 -0 0
    outer loop
      vertex -55.15 -56.8 31.5
      vertex -55.15 26.7 27
      vertex -55.15 56.8 31.5
    endloop
  endfacet
  facet normal 1 0 0
    outer loop
      vertex -55.15 -29.3 27
      vertex -55.15 -43.8 14
      vertex -55.15 -29.3 21
    endloop
  endfacet
  facet normal 1 0 0
    outer loop
      vertex -55.15 -56.8 1.5
      vertex -55.15 -43.8 14
      vertex -55.15 -56.8 31.5
    endloop
  endfacet
  facet normal 1 0 0
    outer loop
      vertex -55.15 -29.3 27
      vertex -55.15 -56.8 31.5
      vertex -55.15 -43.8 14
    endloop
  endfacet
  facet normal 1 0 0
    outer loop
      vertex -55.15 26.7 27
      vertex -55.15 -56.8 31.5
      vertex -55.15 -29.3 27
    endloop
  endfacet
  facet normal 1 -0 0
    outer loop
      vertex -55.15 44.2 4
      vertex -55.15 56.8 1.5
      vertex -55.15 44.2 14
    endloop
  endfacet
  facet normal 1 -0 0
    outer loop
      vertex -55.15 33.2 4
      vertex -55.15 56.8 1.5
      vertex -55.15 44.2 4
    endloop
  endfacet
  facet normal 1 0 0
    outer loop
      vertex -55.15 33.2 14
      vertex -55.15 30.7 6
      vertex -55.15 33.2 4
    endloop
  endfacet
  facet normal 1 -0 0
    outer loop
      vertex -55.15 13.7 6
      vertex -55.15 33.2 4
      vertex -55.15 30.7 6
    endloop
  endfacet
  facet normal 1 0 0
    outer loop
      vertex -55.15 -5.8 4
      vertex -55.15 33.2 4
      vertex -55.15 13.7 6
    endloop
  endfacet
  facet normal 1 0 0
    outer loop
      vertex -55.15 13.7 14
      vertex -55.15 12.2 6
      vertex -55.15 13.7 6
    endloop
  endfacet
  facet normal 1 0 0
    outer loop
      vertex -55.15 -5.8 4
      vertex -55.15 13.7 6
      vertex -55.15 12.2 6
    endloop
  endfacet
  facet normal 1 0 0
    outer loop
      vertex -55.15 -5.8 4
      vertex -55.15 12.2 6
      vertex -55.15 -4.8 6
    endloop
  endfacet
  facet normal 1 0 0
    outer loop
      vertex -55.15 -5.8 4
      vertex -55.15 -4.8 6
      vertex -55.15 -5.8 20
    endloop
  endfacet
  facet normal 1 0 0
    outer loop
      vertex -55.15 33.2 4
      vertex -55.15 -5.8 4
      vertex -55.15 56.8 1.5
    endloop
  endfacet
  facet normal 1 0 0
    outer loop
      vertex -55.15 -56.8 1.5
      vertex -55.15 -5.8 4
      vertex -55.15 -22.8 4
    endloop
  endfacet
  facet normal 1 -0 0
    outer loop
      vertex -55.15 -26.8 6
      vertex -55.15 -22.8 4
      vertex -55.15 -26.8 14
    endloop
  endfacet
  facet normal 1 -0 0
    outer loop
      vertex -55.15 -43.8 6
      vertex -55.15 -22.8 4
      vertex -55.15 -26.8 6
    endloop
  endfacet
  facet normal 1 0 0
    outer loop
      vertex -55.15 -5.8 4
      vertex -55.15 -56.8 1.5
      vertex -55.15 56.8 1.5
    endloop
  endfacet
  facet normal 1 0 0
    outer loop
      vertex -55.15 -43.8 6
      vertex -55.15 -56.8 1.5
      vertex -55.15 -22.8 4
    endloop
  endfacet
  facet normal 1 0 0
    outer loop
      vertex -55.15 -43.8 14
      vertex -55.15 -56.8 1.5
      vertex -55.15 -43.8 6
    endloop
  endfacet
  facet normal 1 0 0
    outer loop
      vertex -55.15 33.2 14
      vertex -55.15 26.7 21
      vertex -55.15 30.7 14
    endloop
  endfacet
  facet normal 1 0 0
    outer loop
      vertex -55.15 26.7 21
      vertex -55.15 13.7 14
      vertex -55.15 30.7 14
    endloop
  endfacet
  facet normal 1 0 0
    outer loop
      vertex -55.15 12.2 6
      vertex -55.15 13.7 14
      vertex -55.15 12.2 20
    endloop
  endfacet
  facet normal 1 0 0
    outer loop
      vertex -55.15 26.7 21
      vertex -55.15 12.2 20
      vertex -55.15 13.7 14
    endloop
  endfacet
  facet normal 1 0 0
    outer loop
      vertex -55.15 26.7 21
      vertex -55.15 -4.8 20
      vertex -55.15 12.2 20
    endloop
  endfacet
  facet normal 1 0 0
    outer loop
      vertex -55.15 -4.8 20
      vertex -55.15 -5.8 20
      vertex -55.15 -4.8 6
    endloop
  endfacet
  facet normal 1 -0 0
    outer loop
      vertex -55.15 -29.3 21
      vertex -55.15 -4.8 20
      vertex -55.15 26.7 21
    endloop
  endfacet
  facet normal 1 0 0
    outer loop
      vertex -55.15 -4.8 20
      vertex -55.15 -29.3 21
      vertex -55.15 -5.8 20
    endloop
  endfacet
  facet normal 1 0 0
    outer loop
      vertex -55.15 -22.8 20
      vertex -55.15 -26.8 14
      vertex -55.15 -22.8 4
    endloop
  endfacet
  facet normal 1 0 0
    outer loop
      vertex -55.15 -5.8 20
      vertex -55.15 -29.3 21
      vertex -55.15 -22.8 20
    endloop
  endfacet
  facet normal 1 0 0
    outer loop
      vertex -55.15 -29.3 21
      vertex -55.15 -26.8 14
      vertex -55.15 -22.8 20
    endloop
  endfacet
  facet normal 1 0 0
    outer loop
      vertex -55.15 -26.8 14
      vertex -55.15 -29.3 21
      vertex -55.15 -43.8 14
    endloop
  endfacet
  facet normal 0 1 -0
    outer loop
      vertex -55.15 56.8 1.5
      vertex -57.65 56.8 31.5
      vertex -55.15 56.8 31.5
    endloop
  endfacet
  facet normal 0 1 0
    outer loop
      vertex -57.65 56.8 31.5
      vertex -55.15 56.8 1.5
      vertex -57.65 56.8 1.5
    endloop
  endfacet
  facet normal 0 0 -1
    outer loop
      vertex -57.65 -56.8 1.5
      vertex -55.15 56.8 1.5
      vertex -55.15 -56.8 1.5
    endloop
  endfacet
  facet normal -0 0 -1
    outer loop
      vertex -55.15 56.8 1.5
      vertex -57.65 -56.8 1.5
      vertex -57.65 56.8 1.5
    endloop
  endfacet
  facet normal 0 -1 0
    outer loop
      vertex -57.65 -56.8 1.5
      vertex -55.15 -56.8 31.5
      vertex -57.65 -56.8 31.5
    endloop
  endfacet
  facet normal 0 -1 -0
    outer loop
      vertex -55.15 -56.8 31.5
      vertex -57.65 -56.8 1.5
      vertex -55.15 -56.8 1.5
    endloop
  endfacet
  facet normal 0 0 -1
    outer loop
      vertex -57.65 33.2 14
      vertex -55.15 44.2 14
      vertex -55.15 33.2 14
    endloop
  endfacet
  facet normal -0 0 -1
    outer loop
      vertex -55.15 44.2 14
      vertex -57.65 33.2 14
      vertex -57.65 44.2 14
    endloop
  endfacet
  facet normal -0 0 1
    outer loop
      vertex -57.65 44.2 4
      vertex -55.15 33.2 4
      vertex -55.15 44.2 4
    endloop
  endfacet
  facet normal 0 0 1
    outer loop
      vertex -55.15 33.2 4
      vertex -57.65 44.2 4
      vertex -57.65 33.2 4
    endloop
  endfacet
  facet normal 0 1 -0
    outer loop
      vertex -55.15 33.2 4
      vertex -57.65 33.2 14
      vertex -55.15 33.2 14
    endloop
  endfacet
  facet normal 0 1 0
    outer loop
      vertex -57.65 33.2 14
      vertex -55.15 33.2 4
      vertex -57.65 33.2 4
    endloop
  endfacet
  facet normal 0 -1 0
    outer loop
      vertex -57.65 44.2 4
      vertex -55.15 44.2 14
      vertex -57.65 44.2 14
    endloop
  endfacet
  facet normal 0 -1 -0
    outer loop
      vertex -55.15 44.2 14
      vertex -57.65 44.2 4
      vertex -55.15 44.2 4
    endloop
  endfacet
  facet normal 0 0 -1
    outer loop
      vertex -57.65 -22.8 20
      vertex -55.15 -5.8 20
      vertex -55.15 -22.8 20
    endloop
  endfacet
  facet normal -0 0 -1
    outer loop
      vertex -55.15 -5.8 20
      vertex -57.65 -22.8 20
      vertex -57.65 -5.8 20
    endloop
  endfacet
  facet normal -0 0 1
    outer loop
      vertex -57.65 -5.8 4
      vertex -55.15 -22.8 4
      vertex -55.15 -5.8 4
    endloop
  endfacet
  facet normal 0 0 1
    outer loop
      vertex -55.15 -22.8 4
      vertex -57.65 -5.8 4
      vertex -57.65 -22.8 4
    endloop
  endfacet
  facet normal 0 1 -0
    outer loop
      vertex -55.15 -22.8 4
      vertex -57.65 -22.8 20
      vertex -55.15 -22.8 20
    endloop
  endfacet
  facet normal 0 1 0
    outer loop
      vertex -57.65 -22.8 20
      vertex -55.15 -22.8 4
      vertex -57.65 -22.8 4
    endloop
  endfacet
  facet normal 0 -1 0
    outer loop
      vertex -57.65 -5.8 4
      vertex -55.15 -5.8 20
      vertex -57.65 -5.8 20
    endloop
  endfacet
  facet normal 0 -1 -0
    outer loop
      vertex -55.15 -5.8 20
      vertex -57.65 -5.8 4
      vertex -55.15 -5.8 4
    endloop
  endfacet
  facet normal 0 0 -1
    outer loop
      vertex -57.65 13.7 14
      vertex -55.15 30.7 14
      vertex -55.15 13.7 14
    endloop
  endfacet
  facet normal -0 0 -1
    outer loop
      vertex -55.15 30.7 14
      vertex -57.65 13.7 14
      vertex -57.65 30.7 14
    endloop
  endfacet
  facet normal 0 -1 0
    outer loop
      vertex -57.65 30.7 6
      vertex -55.15 30.7 14
      vertex -57.65 30.7 14
    endloop
  endfacet
  facet normal 0 -1 -0
    outer loop
      vertex -55.15 30.7 14
      vertex -57.65 30.7 6
      vertex -55.15 30.7 6
    endloop
  endfacet
  facet normal -0 0 1
    outer loop
      vertex -57.65 30.7 6
      vertex -55.15 13.7 6
      vertex -55.15 30.7 6
    endloop
  endfacet
  facet normal 0 0 1
    outer loop
      vertex -55.15 13.7 6
      vertex -57.65 30.7 6
      vertex -57.65 13.7 6
    endloop
  endfacet
  facet normal 0 1 -0
    outer loop
      vertex -55.15 13.7 6
      vertex -57.65 13.7 14
      vertex -55.15 13.7 14
    endloop
  endfacet
  facet normal 0 1 0
    outer loop
      vertex -57.65 13.7 14
      vertex -55.15 13.7 6
      vertex -57.65 13.7 6
    endloop
  endfacet
  facet normal 0 0 -1
    outer loop
      vertex -57.65 -43.8 14
      vertex -55.15 -26.8 14
      vertex -55.15 -43.8 14
    endloop
  endfacet
  facet normal -0 0 -1
    outer loop
      vertex -55.15 -26.8 14
      vertex -57.65 -43.8 14
      vertex -57.65 -26.8 14
    endloop
  endfacet
  facet normal 0 -1 0
    outer loop
      vertex -57.65 -26.8 6
      vertex -55.15 -26.8 14
      vertex -57.65 -26.8 14
    endloop
  endfacet
  facet normal 0 -1 -0
    outer loop
      vertex -55.15 -26.8 14
      vertex -57.65 -26.8 6
      vertex -55.15 -26.8 6
    endloop
  endfacet
  facet normal -0 0 1
    outer loop
      vertex -57.65 -26.8 6
      vertex -55.15 -43.8 6
      vertex -55.15 -26.8 6
    endloop
  endfacet
  facet normal 0 0 1
    outer loop
      vertex -55.15 -43.8 6
      vertex -57.65 -26.8 6
      vertex -57.65 -43.8 6
    endloop
  endfacet
  facet normal 0 1 -0
    outer loop
      vertex -55.15 -43.8 6
      vertex -57.65 -43.8 14
      vertex -55.15 -43.8 14
    endloop
  endfacet
  facet normal 0 1 0
    outer loop
      vertex -57.65 -43.8 14
      vertex -55.15 -43.8 6
      vertex -57.65 -43.8 6
    endloop
  endfacet
  facet normal 0 0 -1
    outer loop
      vertex -57.65 -4.8 20
      vertex -55.15 12.2 20
      vertex -55.15 -4.8 20
    endloop
  endfacet
  facet normal -0 0 -1
    outer loop
      vertex -55.15 12.2 20
      vertex -57.65 -4.8 20
      vertex -57.65 12.2 20
    endloop
  endfacet
  facet normal -0 0 1
    outer loop
      vertex -57.65 12.2 6
      vertex -55.15 -4.8 6
      vertex -55.15 12.2 6
    endloop
  endfacet
  facet normal 0 0 1
    outer loop
      vertex -55.15 -4.8 6
      vertex -57.65 12.2 6
      vertex -57.65 -4.8 6
    endloop
  endfacet
  facet normal 0 1 -0
    outer loop
      vertex -55.15 -4.8 6
      vertex -57.65 -4.8 20
      vertex -55.15 -4.8 20
    endloop
  endfacet
  facet normal 0 1 0
    outer loop
      vertex -57.65 -4.8 20
      vertex -55.15 -4.8 6
      vertex -57.65 -4.8 6
    endloop
  endfacet
  facet normal 0 -1 0
    outer loop
      vertex -57.65 12.2 6
      vertex -55.15 12.2 20
      vertex -57.65 12.2 20
    endloop
  endfacet
  facet normal 0 -1 -0
    outer loop
      vertex -55.15 12.2 20
      vertex -57.65 12.2 6
      vertex -55.15 12.2 6
    endloop
  endfacet
  facet normal 0 0 -1
    outer loop
      vertex -57.65 -29.3 27
      vertex -55.15 26.7 27
      vertex -55.15 -29.3 27
    endloop
  endfacet
  facet normal -0 0 -1
    outer loop
      vertex -55.15 26.7 27
      vertex -57.65 -29.3 27
      vertex -57.65 26.7 27
    endloop
  endfacet
  facet normal 0 -1 0
    outer loop
      vertex -57.65 26.7 21
      vertex -55.15 26.7 27
      vertex -57.65 26.7 27
    endloop
  endfacet
  facet normal 0 -1 -0
    outer loop
      vertex -55.15 26.7 27
      vertex -57.65 26.7 21
      vertex -55.15 26.7 21
    endloop
  endfacet
  facet normal -0 0 1
    outer loop
      vertex -57.65 26.7 21
      vertex -55.15 -29.3 21
      vertex -55.15 26.7 21
    endloop
  endfacet
  facet normal 0 0 1
    outer loop
      vertex -55.15 -29.3 21
      vertex -57.65 26.7 21
      vertex -57.65 -29.3 21
    endloop
  endfacet
  facet normal 0 1 -0
    outer loop
      vertex -55.15 -29.3 21
      vertex -57.65 -29.3 27
      vertex -55.15 -29.3 27
    endloop
  endfacet
  facet normal 0 1 0
    outer loop
      vertex -57.65 -29.3 27
      vertex -55.15 -29.3 21
      vertex -57.65 -29.3 21
    endloop
  endfacet
endsolid OpenSCAD_Model
